<?xml version="1.0" encoding="UTF-8"?>
<svg version="1.1" xmlns="http://www.w3.org/2000/svg" width="960" height="1224" viewBox="0 0 960 1224" fill="none" preserveAspectRatio="xMidYMid meet" >
	<path d="M0 0 C316.8 0 633.6 0 960 0 C960 403.92 960 807.84 960 1224 C643.2 1224 326.4 1224 0 1224 C0 820.08 0 416.16 0 0 Z " fill="#EBEDEA" transform="translate(0,0)"/>
	<path d="M0 0 C2.41565911 8.06854669 4.52170558 16.08843657 6.23046875 24.33984375 C8.27784449 34.0778695 10.67312639 43.73594321 13.11669922 53.38085938 C15.9222853 64.45867898 18.51573669 75.56474848 20.90771484 86.73974609 C22.1618642 92.52954545 23.59262473 98.1841708 25.3503418 103.84130859 C26.17320545 106.57552897 26.76346562 109.32380419 27.3125 112.125 C28.63863046 118.52772364 30.19918579 124.85146295 31.8125 131.1875 C34.39032826 141.32728148 36.71791487 151.50846441 38.9074707 161.73901367 C40.15956363 167.51861157 41.5867522 173.16343434 43.34155273 178.81054688 C44.20995174 181.6981265 44.84207411 184.60756034 45.4375 187.5625 C46.54899936 192.91631891 47.73752721 198.24284462 49 203.5625 C49.17208984 204.28800049 49.34417969 205.01350098 49.52148438 205.76098633 C49.85943859 207.18524489 50.1974893 208.60948056 50.53564453 210.03369141 C51.18176647 212.76968831 51.81002541 215.50967313 52.4375 218.25 C55.75639257 232.64971133 59.2340707 247.00652672 62.83911133 261.3371582 C64.44008425 267.71580119 65.98244634 274.10429623 67.46557617 280.51123047 C68.62197884 285.47464018 69.85628047 290.41563821 71.109375 295.35546875 C73.85100373 306.16811676 76.36337239 317.01183879 78.74511719 327.90917969 C80.85665161 337.50631067 83.21279969 347.03046396 85.62890625 356.5546875 C86.82501672 361.275096 87.96245908 366.00638973 89.0625 370.75 C90.41527507 376.57963458 91.84323638 382.38616867 93.3125 388.1875 C95.85078679 398.21910672 98.18734476 408.29634203 100.5012207 418.3815918 C102.00014258 424.87691994 103.58346844 431.31389402 105.46240234 437.71069336 C106 440 106 440 106 444 C123.19739437 445.1466689 140.39150524 445.19762181 157.61844254 445.18847656 C159.95790071 445.18749141 162.29735233 445.18848518 164.6368103 445.18969727 C186.44965395 445.19390862 208.15408782 444.77450428 229.91650391 443.1875 C233.95611102 442.94186118 237.95451085 442.92941349 242 443 C242 446.63 242 450.26 242 454 C240.66066406 454.42410156 239.32132813 454.84820313 237.94140625 455.28515625 C224.30253628 459.55500896 224.30253628 459.55500896 213 468 C212.4225 468.60070312 211.845 469.20140625 211.25 469.8203125 C195.63882277 487.15772568 195.56526112 513.84411919 195.453125 535.87011719 C195.43262138 537.86992458 195.41105356 539.86972129 195.38851929 541.86950684 C195.32121585 548.34521012 195.28434499 554.82092651 195.25 561.296875 C195.23651792 563.54163947 195.22290614 565.78640316 195.20916748 568.03116608 C195.15400661 577.36174795 195.10628826 586.6923098 195.08004761 596.0230217 C195.04254736 609.33883448 194.96004575 622.6526174 194.81491852 635.9677074 C194.71595154 645.37114029 194.66676049 654.77403362 194.65483856 664.17797589 C194.646494 669.78136294 194.61667415 675.38267391 194.53381348 680.98549652 C194.45722065 686.24302839 194.44236169 691.4971562 194.47472 696.75511169 C194.4759318 698.68050752 194.45496747 700.60606724 194.40995407 702.53093719 C194.1098723 710.91822914 194.1098723 710.91822914 196 719 C199.90296729 723.04471699 203.74972961 724.94104377 209 727 C210.15730621 727.50143902 211.31461243 728.00287804 212.50698853 728.51951218 C219.47774594 731.46929801 226.63523757 733.31409053 234 735 C234 739.29 234 743.58 234 748 C225.38478163 748.11751364 216.90070158 747.65891852 208.3125 747 C207.02666016 746.90460937 205.74082031 746.80921875 204.41601562 746.7109375 C201.2770558 746.47755759 198.13842042 746.24050669 195 746 C195.00276538 747.03070492 195.00553076 748.06140984 195.00837994 749.12334824 C195.07529707 774.32731324 195.12442723 799.53126657 195.15543652 824.73530197 C195.17083506 836.92431568 195.19178863 849.11327032 195.22631836 861.30224609 C195.2564374 871.93941996 195.27562579 882.57655101 195.28226548 893.21376634 C195.28614005 898.83402964 195.29509518 904.45417057 195.31719017 910.07439423 C195.40479881 933.2606918 195.30675654 956.00580747 192 979 C191.76232488 980.79497765 191.52645695 982.59019578 191.29264832 984.38568115 C189.07750422 1001.37252762 184.22782106 1018.06648379 178 1034 C177.62359375 1034.97453125 177.2471875 1035.9490625 176.859375 1036.953125 C168.90571514 1056.78425025 158.52503104 1075.25575305 144 1091 C142.74703125 1092.35931641 142.74703125 1092.35931641 141.46875 1093.74609375 C123.09658995 1112.84500064 96.66916734 1126.66824109 69.97045898 1127.64257812 C57.46307475 1127.80161058 47.27332304 1126.35767827 36 1121 C34.79601562 1120.48179688 33.59203125 1119.96359375 32.3515625 1119.4296875 C3.11255898 1106.06881834 -16.11953014 1078.72021295 -28.19238281 1049.91503906 C-28.84427878 1048.36924946 -29.52342074 1046.83496674 -30.2109375 1045.3046875 C-33.86384663 1036.91760813 -35.84032238 1027.86363801 -38 1019 C-38.18256348 1018.27546631 -38.36512695 1017.55093262 -38.55322266 1016.80444336 C-46.7026756 982.84586246 -46.08360426 936.38159365 -29.125 905.0625 C-25.47533605 899.65194697 -20.22134691 895.0737823 -14 893 C-6.88939721 892.07911866 -1.83468902 892.718523 3.93359375 897.09375 C7.48767573 900.37237383 10.29632778 904.00480982 13 908 C13.70125 909.03125 14.4025 910.0625 15.125 911.125 C16.98002995 914.61020778 18.35240511 918.29097833 19.6875 922 C20.31205078 923.7325 20.31205078 923.7325 20.94921875 925.5 C24.01454678 936.5450176 23.14469944 948.97878407 22.75 960.3125 C22.72766296 960.98365845 22.70532593 961.65481689 22.68231201 962.34631348 C22.20642549 976.04257953 20.81849506 989.23215263 16.6484375 1002.34765625 C14.58098577 1010.80428109 15.24167312 1018.37900079 16.5625 1026.9375 C16.83549927 1028.72450317 16.83549927 1028.72450317 17.11401367 1030.54760742 C20.42987332 1050.90311053 27.6685089 1073.84913788 44.6875 1086.875 C56.39418685 1094.37792203 70.59531279 1096.16340039 84.16992188 1093.58837891 C98.90112265 1089.97526273 110.59576371 1081.38353579 118.57910156 1068.52294922 C120.45335989 1065.38485615 122.24351653 1062.2052224 124 1059 C124.495 1058.11054687 124.99 1057.22109375 125.5 1056.3046875 C157.75222914 995.22702857 148.5009509 912.47052332 148.66146362 845.84807986 C148.6888502 834.71540478 148.73278262 823.58281102 148.77772844 812.45019519 C148.86949482 789.63350806 148.94165721 766.81679547 149 744 C138.08832866 744.10872844 127.17670784 744.22157748 116.26513004 744.33933926 C111.19556973 744.39392977 106.12600346 744.44722893 101.05639648 744.49731445 C74.14568572 744.72096754 74.14568572 744.72096754 47.24609375 745.46875 C45.82998558 745.52360817 45.82998558 745.52360817 44.38526917 745.57957458 C37.62491647 745.88303799 30.97835386 746.6401494 24.28125 747.58984375 C20.13652985 748.10793377 16.16926643 748.14890237 12 748 C12 743.71 12 739.42 12 735 C13.06476563 734.78085937 14.12953125 734.56171875 15.2265625 734.3359375 C37.17401321 729.62636977 60.51936966 719.37001095 73.5625 700.125 C74.39447757 698.76169718 75.20732658 697.38652447 76 696 C76.50144531 695.20464844 77.00289062 694.40929687 77.51953125 693.58984375 C85.74342199 679.20345969 85.48907224 659.76239694 82 644 C81.3414296 641.64464234 80.60951536 639.32776796 79.84765625 637.00390625 C78.66704496 632.82008098 77.88139204 628.57979768 77.0625 624.3125 C75.6697486 617.08488844 74.05381728 610.0249239 72.02734375 602.9453125 C70.75603451 598.29262919 69.81550175 593.56601399 68.81860352 588.84863281 C67.57253661 582.99029736 66.26376039 577.14639177 64.94775391 571.3034668 C64.64810142 569.97104258 64.34960739 568.63835734 64.05224609 567.30541992 C62.40419848 559.91802399 60.6638862 552.57774647 58.62548828 545.28686523 C57.86396721 542.50264671 57.25425478 539.70491841 56.6875 536.875 C55.27423943 530.1136639 53.68311493 523.40197727 52.0625 516.6875 C51.80065918 515.60218994 51.53881836 514.51687988 51.26904297 513.39868164 C50.75183268 511.25629814 50.23442204 509.11396299 49.71679688 506.97167969 C47.57310807 498.08442488 45.44601067 489.19667566 43.5625 480.25 C41.77394395 471.79763029 39.74389562 463.40529806 37.72216797 455.00634766 C36.93712164 451.73824068 36.15769092 448.4688233 35.37890625 445.19921875 C34.83600622 442.92446277 34.2930386 440.64972291 33.75 438.375 C33.49178467 437.28985107 33.23356934 436.20470215 32.9675293 435.08666992 C32.60461792 433.57036987 32.60461792 433.57036987 32.234375 432.0234375 C32.02006836 431.12544434 31.80576172 430.22745117 31.58496094 429.30224609 C31.13069128 427.51436509 30.58334205 425.75002614 30 424 C-20.49 423.67 -70.98 423.34 -123 423 C-123.99 428.94 -123.99 428.94 -125 435 C-126.5 440.125 -126.5 440.125 -127.21875 442.2578125 C-127.91472007 444.70066744 -128.43154596 447.09051378 -128.9140625 449.58203125 C-130.02683873 455.29794255 -131.43558893 460.92137947 -132.875 466.5625 C-135.18092359 475.69168929 -137.40923424 484.83312135 -139.53662109 494.00537109 C-140.83108763 499.57744254 -142.14784938 505.14432358 -143.46142578 510.71191406 C-144.02759866 513.11725051 -144.58989569 515.52347757 -145.15234375 517.9296875 C-147.35301964 527.30056554 -149.66485059 536.63115412 -152.125 545.9375 C-154.03410782 553.15997268 -155.79169408 560.36410461 -157.2890625 567.68359375 C-158.10312252 571.48104955 -159.04043192 575.23722443 -160 579 C-161.22719586 583.81680088 -162.37036543 588.63047716 -163.375 593.5 C-164.71953517 599.91577108 -166.28016379 606.26713949 -167.875 612.625 C-168.26075195 614.17924683 -168.26075195 614.17924683 -168.65429688 615.76489258 C-169.86560956 620.61731757 -171.11117501 625.44904943 -172.5 630.25390625 C-178.04176462 649.81014376 -178.65897397 671.10238082 -168.609375 689.43359375 C-153.70755866 713.19692708 -134.22783361 725.79661317 -108 735 C-108 739.29 -108 743.58 -108 748 C-110.770986 747.8567257 -113.54176105 747.71041993 -116.3125 747.5625 C-117.46202148 747.50352539 -117.46202148 747.50352539 -118.63476562 747.44335938 C-122.84662753 747.2161635 -127.03637943 746.91199059 -131.234375 746.5 C-137.79496165 745.88863758 -144.3529136 745.63882803 -150.9375 745.4375 C-151.6181955 745.41665344 -152.29889099 745.39580688 -153.00021362 745.37432861 C-211.53402128 743.59545698 -211.53402128 743.59545698 -269.87109375 747.59765625 C-274.26019349 748.09778735 -278.58549246 748.06523903 -283 748 C-283 743.71 -283 739.42 -283 735 C-281.783125 734.484375 -280.56625 733.96875 -279.3125 733.4375 C-268.41626683 728.54531368 -258.91053548 723.0051101 -250 715 C-249.36578125 714.43667969 -248.7315625 713.87335937 -248.078125 713.29296875 C-238.95365489 704.69169074 -232.30381616 693.73166078 -226 683 C-225.50371094 682.16210938 -225.00742187 681.32421875 -224.49609375 680.4609375 C-222.20867439 676.48697312 -220.35180247 672.58209788 -218.85058594 668.25170898 C-217.91633373 665.77851494 -216.81573856 663.42807424 -215.68359375 661.0390625 C-212.87902963 654.90604941 -210.66900495 648.6516289 -208.5625 642.25 C-208.17489502 641.08202881 -207.78729004 639.91405762 -207.38793945 638.71069336 C-204.57759036 630.10243262 -202.1590412 621.43780835 -199.95947266 612.65576172 C-198.78896024 607.98442048 -197.5521042 603.41767611 -195.9375 598.875 C-193.81576315 592.83285225 -192.44027273 586.65275105 -191.00024414 580.42163086 C-189.21723719 572.76047452 -187.18821516 565.18248062 -185.09033203 557.60229492 C-183.83381588 553.05972472 -182.6064631 548.51955897 -181.5 543.9375 C-180.17312486 538.49652678 -178.61761735 533.12902793 -177.0625 527.75 C-174.85824229 520.12024103 -172.8171438 512.47533146 -170.9296875 504.76171875 C-169.37805188 498.48346202 -167.68098824 492.24460867 -166 486 C-165.33268438 483.50017314 -164.66601893 481.00017264 -164 478.5 C-163.66742187 477.25347656 -163.33484375 476.00695312 -162.9921875 474.72265625 C-162.35025611 472.31414989 -161.70954893 469.90531677 -161.0703125 467.49609375 C-158.82157707 459.03081284 -156.52468082 450.57942041 -154.21582031 442.13037109 C-152.11272708 434.42835854 -150.04753823 426.71698233 -148 419 C-146.99804888 415.24071097 -145.99511355 411.48168529 -144.9921875 407.72265625 C-144.35025611 405.31414989 -143.70954893 402.90531677 -143.0703125 400.49609375 C-139.10989038 385.58723199 -135.08357588 370.6981457 -130.8125 355.875 C-128.99544696 349.56495429 -127.25512283 343.2535766 -125.70703125 336.87109375 C-124.23400129 330.88945275 -122.59735388 324.94938972 -121 319 C-120.33284863 316.5001293 -119.66617885 314.00013003 -119 311.5 C-118.01268675 307.79661491 -117.02495318 304.09334711 -116.03515625 300.390625 C-114.61755766 295.08459331 -113.20166237 289.77838981 -111.8125 284.46484375 C-109.52326522 275.71273584 -107.17551197 266.98195454 -104.73242188 258.27148438 C-103.61120564 254.25703509 -102.54381478 250.23901014 -101.5625 246.1875 C-100.21390655 240.66286435 -98.64196661 235.21189744 -97.0625 229.75 C-94.50302256 220.87652043 -92.17982939 211.97476633 -90 203 C-84.09561985 178.71572055 -84.09561985 178.71572055 -80.859375 169.55078125 C-79.63145384 165.90608798 -78.74639643 162.20222778 -77.84765625 158.46484375 C-76.78672678 154.12823345 -75.64415209 149.81526881 -74.5 145.5 C-73.11329504 140.2576412 -71.73933281 135.01424198 -70.4375 129.75 C-68.05475033 120.15281385 -65.47946148 110.61663759 -62.73022461 101.11865234 C-56.0133759 77.87136384 -54.43475931 61.08409556 -62.23046875 37.609375 C-63 35 -63 35 -63 32 C-61.98164062 31.68289062 -60.96328125 31.36578125 -59.9140625 31.0390625 C-46.03090772 26.53068368 -33.479349 19.97686697 -21.4921875 11.6484375 C-17.75863888 9.17891161 -13.91362192 6.90549482 -10.0625 4.625 C-9.30316162 4.17125 -8.54382324 3.7175 -7.76147461 3.25 C-6.69038452 2.61964844 -6.69038452 2.61964844 -5.59765625 1.9765625 C-4.95320557 1.59580566 -4.30875488 1.21504883 -3.64477539 0.82275391 C-2 0 -2 0 0 0 Z " fill="#020202" transform="translate(688,64)"/>
	<path d="M0 0 C2.03504999 3.05257499 2.61266071 4.98564875 3.41015625 8.51953125 C3.67344727 9.6688916 3.93673828 10.81825195 4.20800781 12.00244141 C4.63098145 13.88842041 4.63098145 13.88842041 5.0625 15.8125 C5.52021723 17.81938031 5.98032064 19.82570509 6.44046021 21.83203125 C6.76837316 23.26253424 7.09556422 24.69320286 7.42208862 26.12402344 C9.29055703 34.30400886 11.22269934 42.46878894 13.15914917 50.63290405 C13.73754376 53.07246195 14.31434037 55.51239315 14.89086914 57.95239258 C16.67845297 65.50675461 18.50345408 73.04847148 20.40087891 80.57617188 C21.10726396 83.43395134 21.72754806 86.30253297 22.3125 89.1875 C23.6709936 95.63506547 25.19641472 102.03435861 26.75 108.4375 C29.06700697 118.00187236 31.28330245 127.58517645 33.4375 137.1875 C35.83323501 147.86408707 38.26470867 158.53137865 40.75 169.1875 C41.03157959 170.39752686 41.31315918 171.60755371 41.60327148 172.85424805 C42.88306563 178.32801121 44.19247149 183.79030143 45.578125 189.23828125 C46.46603147 192.75377811 47.27330577 196.25895344 47.953125 199.8203125 C49.12636681 205.88688998 50.69383464 211.84871113 52.22744751 217.83242798 C55.44292927 230.40121904 58.39674686 242.99033239 61.00878906 255.70068359 C62.25677043 261.73502983 63.66924612 267.64685608 65.43823242 273.55151367 C66 276 66 276 66 281 C21.12 281 -23.76 281 -70 281 C-69.34002217 273.74024385 -68.63971925 267.65150332 -66.6875 260.8125 C-66.23594166 259.17085794 -65.78543946 257.52892506 -65.3359375 255.88671875 C-65.11131836 255.07380371 -64.88669922 254.26088867 -64.65527344 253.42333984 C-63.30091067 248.41461973 -62.11139552 243.36382655 -60.89453125 238.3203125 C-60 235 -60 235 -59.00236511 232.60717773 C-58.00864605 230.02248861 -57.49952097 227.69427565 -57.06762695 224.96484375 C-55.99755857 218.74211048 -54.49396228 212.67401663 -52.91796875 206.5625 C-52.62191238 205.40234375 -52.32585602 204.2421875 -52.02082825 203.046875 C-51.07992113 199.36366833 -50.13372736 195.68184301 -49.1875 192 C-48.56412095 189.5612828 -47.94107146 187.12248134 -47.31835938 184.68359375 C-44.45192345 173.47174034 -41.57307485 162.26351561 -38.58769226 151.0826416 C-37.29589133 146.22162876 -36.12210146 141.34030059 -35 136.4375 C-33.64337781 130.55937109 -32.13816929 124.74363825 -30.5 118.9375 C-27.55903161 108.50580324 -24.95276073 98.00712858 -22.44140625 87.46484375 C-19.02689906 73.15975379 -15.42478634 58.93072372 -11.5546875 44.7421875 C-9.96510114 38.90610759 -8.48772569 33.04944373 -7.04296875 27.17578125 C-4.79448795 18.09246891 -2.37457501 9.05098532 0 0 Z " fill="#FDFDFD" transform="translate(644,172)"/>
	<path d="M0 0 C13.35848558 11.62021562 17.72917103 27.08469209 19.046875 44.21484375 C19.46480186 62.70313178 16.14485895 79.70446519 3.31640625 93.65625 C-1.90223164 98.42577964 -6.82526358 100.03973248 -13.74609375 100.78125 C-21.58512785 99.94135349 -27.78328074 97.5928814 -32.890625 91.41796875 C-42.1956593 79.03152876 -45.47616387 66.67641459 -45.59619141 51.40209961 C-45.61258221 49.88273623 -45.63964271 48.36344434 -45.67822266 46.84448242 C-46.09489199 30.30270991 -42.47419369 14.89433606 -30.74609375 2.46875 C-22.10510494 -5.62028138 -9.84037499 -6.98238782 0 0 Z " fill="#010201" transform="translate(879.24609375,341.59375)"/>
	<path d="M0 0 C10.35258285 2.65450842 18.02793658 9.71726507 23.625 18.5703125 C30.16121071 30.0413623 33.78650637 42.2260467 35.5625 55.25 C35.68818359 56.12785156 35.81386719 57.00570312 35.94335938 57.91015625 C37.71695942 70.59464666 38.13692516 83.00585915 38.09765625 95.79296875 C38.09578763 97.59328675 38.09436582 99.39360526 38.09336853 101.19392395 C38.08957832 105.89724164 38.07977851 110.60052769 38.06866455 115.30383301 C38.05837465 120.11726453 38.05385478 124.93070124 38.04882812 129.74414062 C38.03815258 139.1627742 38.02111894 148.58138445 38 158 C35.74273027 154.6140954 35.19275302 151.604219 34.5 147.6875 C33.63333657 142.95382205 32.54844923 138.55093005 31 134 C30.67221735 132.38189834 30.38034814 130.7561014 30.125 129.125 C29.2150527 123.87693188 27.98540982 118.74989684 26.66796875 113.59033203 C25.26105615 108.07355246 23.93130436 102.54140956 22.625 97 C20.33974637 87.33758399 17.94809818 77.70347925 15.52734375 68.07421875 C15.2859668 67.11298096 15.04458984 66.15174316 14.79589844 65.16137695 C14.22366425 62.88841362 13.64843632 60.61620321 13.07128906 58.34448242 C10.31784202 47.46996669 7.81395771 36.54578813 5.34912109 25.6027832 C4.83591912 23.32726953 4.32037282 21.0522957 3.8046875 18.77734375 C3.57650833 17.75845314 3.57650833 17.75845314 3.34371948 16.71897888 C2.62006997 13.52854506 1.82141857 10.40043186 0.88720703 7.26391602 C0 4 0 4 0 0 Z " fill="#F8F8F8" transform="translate(799,526)"/>
	<path d="M0 0 C0.33 0 0.66 0 1 0 C0.34 14.19 -0.32 28.38 -1 43 C-1.33 43 -1.66 43 -2 43 C-2.21930387 38.48410703 -2.41567003 33.96796914 -2.59204102 29.45019531 C-2.65495609 27.91770637 -2.72382577 26.3854486 -2.79907227 24.85351562 C-3.22246937 16.14687989 -3.45611857 8.21223344 0 0 Z " fill="#E7E7E7" transform="translate(647,1006)"/>
	<path d="M0 0 C0.598125 0.20625 1.19625 0.4125 1.8125 0.625 C2.1425 1.945 2.4725 3.265 2.8125 4.625 C3.451875 4.728125 4.09125 4.83125 4.75 4.9375 C5.430625 5.164375 6.11125 5.39125 6.8125 5.625 C7.1425 6.615 7.4725 7.605 7.8125 8.625 C-1.78203303 5.91884966 -1.78203303 5.91884966 -5.1875 1.625 C-2.1875 -0.375 -2.1875 -0.375 0 0 Z " fill="#DEDFDD" transform="translate(896.1875,785.375)"/>
	<path d="M0 0 C0.33 0 0.66 0 1 0 C0.67 4.95 0.34 9.9 0 15 C-0.66 15 -1.32 15 -2 15 C-3.08056059 11.02840314 -2.85815614 8.57446843 -1.5625 4.6875 C-1.27503906 3.80449219 -0.98757813 2.92148437 -0.69140625 2.01171875 C-0.46324219 1.34785156 -0.23507812 0.68398438 0 0 Z " fill="#CBCBCB" transform="translate(647,1006)"/>
	<path d="M0 0 C0.33 0.66 0.66 1.32 1 2 C-5.07792208 8.24675325 -5.07792208 8.24675325 -8 10 C-8.99 9.67 -9.98 9.34 -11 9 C-9.93458984 8.15115234 -9.93458984 8.15115234 -8.84765625 7.28515625 C-7.92855469 6.55167969 -7.00945313 5.81820313 -6.0625 5.0625 C-5.14597656 4.33160156 -4.22945312 3.60070313 -3.28515625 2.84765625 C-1.59148731 1.48061289 -1.59148731 1.48061289 0 0 Z " fill="#DFE0DE" transform="translate(826,1160)"/>
	<path d="M0 0 C1.485 0.99 1.485 0.99 3 2 C2.25 8.625 2.25 8.625 0 12 C0 8 0 4 0 0 Z " fill="#D3D5D3" transform="translate(562,389)"/>
	<path d="M0 0 C1.99097846 2.98646769 2.94124926 5.59687262 4 9 C2.68 8.67 1.36 8.34 0 8 C-1.125 2.25 -1.125 2.25 0 0 Z " fill="#CCCECC" transform="translate(836,413)"/>
	<path d="M0 0 C2 1 2 1 2.8125 3.375 C3 6 3 6 1.5625 7.8125 C1.046875 8.204375 0.53125 8.59625 0 9 C-1.125 2.25 -1.125 2.25 0 0 Z " fill="#D2D4D3" transform="translate(697,96)"/>
	<path d="M0 0 C0.33 0.99 0.66 1.98 1 3 C1.66 3.33 2.32 3.66 3 4 C2.67 5.32 2.34 6.64 2 8 C1.01 8 0.02 8 -1 8 C-0.67 5.36 -0.34 2.72 0 0 Z " fill="#C9CAC9" transform="translate(555,526)"/>
	<path d="M0 0 C5.75 0.75 5.75 0.75 8 3 C6.35 3.33 4.7 3.66 3 4 C2.01 2.68 1.02 1.36 0 0 Z " fill="#E0E0E0" transform="translate(718,1183)"/>
	<path d="M0 0 C1 3 1 3 0 6 C-2.5625 7.1875 -2.5625 7.1875 -5 8 C-3.62845496 5.04590299 -2.01136276 2.55991624 0 0 Z " fill="#DFE0DE" transform="translate(575,350)"/>
</svg>
